<svg xmlns="http://www.w3.org/2000/svg" viewBox="0 0 79.92 67"><defs><style>.cls-1,.cls-2{fill:none;stroke-linecap:round;stroke-linejoin:round;}.cls-1{stroke:#00508e;}.cls-2{stroke:#444;}</style></defs><g id="Layer_2" data-name="Layer 2"><g id="레이어_1" data-name="레이어 1"><polyline class="cls-1" points="65 60.54 65 22.87 44.1 22.87 44.1 60.54"/><polyline class="cls-1" points="72.3 60.54 72.3 29.17 65.07 22.87"/><polyline class="cls-2" points="44.1 60.54 44.1 0.5 23.1 0.5 23.1 60.54"/><polyline class="cls-2" points="51.33 21.86 51.33 6.79 44.1 0.5"/><line class="cls-2" x1="39.16" y1="9.47" x2="27.39" y2="9.47"/><line class="cls-2" x1="39.16" y1="15" x2="27.39" y2="15"/><line class="cls-2" x1="39.16" y1="20.54" x2="27.39" y2="20.54"/><line class="cls-2" x1="39.16" y1="26.07" x2="27.39" y2="26.07"/><line class="cls-2" x1="39.16" y1="31.6" x2="27.39" y2="31.6"/><line class="cls-2" x1="39.16" y1="37.13" x2="27.39" y2="37.13"/><line class="cls-2" x1="79.42" y1="60.54" x2="0.5" y2="60.54"/><line class="cls-2" x1="41.54" y1="66.5" x2="7.85" y2="66.5"/><line class="cls-2" x1="72.07" y1="66.5" x2="61.12" y2="66.5"/><polyline class="cls-2" points="54.54 66.5 49.42 66.5 47.02 66.5"/><polyline class="cls-2" points="23.1 26.19 7.85 33.37 7.85 60.54"/><line class="cls-2" x1="39.16" y1="42.66" x2="27.39" y2="42.66"/><line class="cls-2" x1="39.16" y1="48.2" x2="27.39" y2="48.2"/><line class="cls-1" x1="60.43" y1="31.6" x2="48.67" y2="31.6"/><line class="cls-1" x1="60.43" y1="37.13" x2="48.67" y2="37.13"/><line class="cls-1" x1="60.43" y1="42.66" x2="48.67" y2="42.66"/><line class="cls-1" x1="60.43" y1="48.2" x2="48.67" y2="48.2"/><line class="cls-2" x1="18.47" y1="37.13" x2="10.99" y2="37.13"/><line class="cls-2" x1="18.47" y1="42.66" x2="10.99" y2="42.66"/><line class="cls-2" x1="18.47" y1="48.2" x2="10.99" y2="48.2"/></g></g></svg>