<svg xmlns="http://www.w3.org/2000/svg" viewBox="0 0 65.53 67"><defs><style>.cls-1,.cls-2{fill:none;stroke-linecap:round;stroke-linejoin:round;}.cls-1{stroke:#00508e;}.cls-2{stroke:#444;}</style></defs><g id="Layer_2" data-name="Layer 2"><g id="레이어_1" data-name="레이어 1"><polyline class="cls-1" points="54.77 34.23 51.83 31.3 47.43 31.3 43.03 28.37 40.1 28.37 37.17 26.9 34.23 29.83 29.83 29.83 25.43 32.77 25.43 35.7"/><path class="cls-1" d="M45.9,14.52c-3.86,2.23-4.33,8-4.33,8s5.5,2.18,9.35-.06,8.25-10.21,8.25-10.21S49.75,12.28,45.9,14.52Z"/><path class="cls-1" d="M35.47,21.17c3.58-3.68,2.33-9.23.43-11.92C31.24,2.64,22.77,4.39,16.75.5c-4.46,10.45.81,23.6,14.55,22"/><path class="cls-1" d="M37,26.94c-1.21-11-9.53-13.71-15.21-18.58"/><path class="cls-2" d="M31.3,46H43c5.87,0,5.87-7.34,0-7.34H35.28c-1.22,0-3.51-2.93-5.45-2.93H22.5c-2,0-4.44,1.61-5.87,2.93L10.77,44.5"/><rect class="cls-2" x="7.78" y="41.59" width="10.37" height="24.89" transform="translate(-34.41 24.99) rotate(-45)"/><line class="cls-2" x1="7.83" y1="48.9" x2="10.77" y2="51.83"/><path class="cls-2" d="M22.5,56.23a3.48,3.48,0,0,1,2.93-1.46H46c1.63,0,10.59-9,11.73-10.27A78.09,78.09,0,0,0,65,32.77c-.85-1.15-3.15-2.1-5.86-1.47s-4.12,2.46-5.87,5.87l-6.72,3.49"/></g></g></svg>