<svg xmlns="http://www.w3.org/2000/svg" viewBox="0 0 47.75 46.75" id="" class="svg newsIcon replaced-svg"><defs><style>.cls-1,.cls-2{fill:none;stroke:#333;stroke-width:1.75px;}.cls-1{stroke-miterlimit:10;}.cls-2{stroke-linecap:round;stroke-linejoin:round;}</style></defs><title>newsIcon</title><g id="Layer_2" data-name="Layer 2"><g id="icons"><path class="cls-1" d="M40.875,7.875h6v-3a4,4,0,0,0-4-4"></path><path class="cls-2" d="M38.875,4.875a4,4,0,0,1,4-4h-34a4,4,0,0,0-4,4v37a4,4,0,0,1-4,4h34a4,4,0,0,0,4-4Z"></path><line class="cls-1" x1="10.875" y1="14.875" x2="24.875" y2="14.875"></line><line class="cls-1" x1="10.875" y1="9.875" x2="24.875" y2="9.875"></line><line class="cls-1" x1="10.875" y1="22.875" x2="31.875" y2="22.875"></line><line class="cls-1" x1="10.875" y1="27.875" x2="31.875" y2="27.875"></line><line class="cls-1" x1="10.875" y1="32.875" x2="24.875" y2="32.875"></line></g></g></svg>