<svg xmlns="http://www.w3.org/2000/svg" viewBox="0 0 277.68 263"><defs><style>.cls-1{fill:none;stroke:#fff;stroke-linecap:round;stroke-miterlimit:10;stroke-width:3px;}</style></defs><g id="Layer_2" data-name="Layer 2"><g id="레이어_1" data-name="레이어 1"><path class="cls-1" d="M217.52,261.5c3.3-36.91,31.3-55.7,46.17-87,12.92-27.19,12.64-61,12.43-90.43-.1-14.67-.6-29.56-3-44.06-1-5.9-2.2-19.76-8.88-22.8-20.67-9.43-15.47,58.4-15.63,64.6"/><path class="cls-1" d="M210.9,186.21c9.18-22.79,29.8-40,35.36-63.87,1.58-6.76,4.75-23-4.35-26.19-8.8-3.09-18.1,11-22.29,16.56-7.81,10.3-14.33,22.13-23.77,31.1s-21.66,14.63-30.74,24.11c-25.85,27.05-7.62,60.81-7.48,92.61"/><path class="cls-1" d="M137,134.8c-3-1.85-74.73-45.88-74.73-92.5a40.8,40.8,0,0,1,76.62-19.52A40.8,40.8,0,0,1,215.46,42.3c0,46.62-71.68,90.65-74.73,92.5L138.84,136Z"/><path class="cls-1" d="M60.16,261.5c-3.3-36.91-31.31-55.7-46.17-87-12.93-27.19-12.64-61-12.43-90.43.1-14.67.59-29.56,3-44.06,1-5.9,2.2-19.76,8.88-22.8C34.06,7.82,28.87,75.65,29,81.85"/><path class="cls-1" d="M66.77,186.21c-9.18-22.79-29.79-40-35.35-63.87-1.58-6.76-4.75-23,4.35-26.19,8.8-3.09,18.1,11,22.29,16.56,7.81,10.3,14.33,22.13,23.76,31.1s21.67,14.63,30.74,24.11c25.86,27.05,7.63,60.81,7.49,92.61"/></g></g></svg>