<svg xmlns="http://www.w3.org/2000/svg" viewBox="0 0 375.58 263"><defs><style>.cls-1{fill:none;stroke:#fff;stroke-linecap:round;stroke-linejoin:round;stroke-width:3px;}</style></defs><g id="Layer_2" data-name="Layer 2"><g id="레이어_1" data-name="레이어 1"><g id="integrity_trust" data-name="integrity trust"><path class="cls-1" d="M305.79,176.45s22.93-32.85,25.49-42.15l14.85-13.69,12.69-10.15,15.26-8"/><path class="cls-1" d="M325.07,1.5,311.49,9.65,297.9,17.8,272.51,33s-52.76-1.66-70.18,0c-10.51,1-34.16,11.54-46,17.09a20.21,20.21,0,0,0-10,10.39l-19.74,46.08s0,7.56,7.51,15.17,24.45,4.74,30.38,0c8.59-6.92,26.82-37.92,26.82-37.92H237"/><path class="cls-1" d="M247.13,124.42l61.19,54.27a18.52,18.52,0,0,1,1.48,26.11h0a18.49,18.49,0,0,1-26.08,1.39L231.9,165"/><path class="cls-1" d="M221.74,205.65l40.83,30.83a18.48,18.48,0,0,0,26.09-1.39h0a18.52,18.52,0,0,0,2.79-4.05"/><path class="cls-1" d="M247.19,251.35A18.6,18.6,0,0,1,225.8,249l-9.14-7.76"/><path class="cls-1" d="M51.82,1.5,94.82,33S138,26.69,145.59,28c17.77,5.07,27.92,14,27.92,14"/><path class="cls-1" d="M1.5,112.24s57.81,43.53,62.85,50.26"/><path class="cls-1" d="M103.88,161.18a15.06,15.06,0,0,1,2.05,3.11A15.64,15.64,0,0,1,102,183.15L83.71,196.84A15.73,15.73,0,0,1,61.65,195l-2.58-3.15a15.72,15.72,0,0,1,1.87-22.06l18.29-13.7a15.59,15.59,0,0,1,22,1.89Z"/><path class="cls-1" d="M130.36,164.31a15.9,15.9,0,0,1,11.75,5.63l2.76,3.2a16,16,0,0,1-1.93,22.44l-29.63,23.51A15.89,15.89,0,0,1,91,217.18l-2.75-3.3c-4.48-5.31-4.75-13.78-1.31-19.43"/><path class="cls-1" d="M171,185.09a16.24,16.24,0,0,1,4.63,3.76l2.79,3.36a16.14,16.14,0,0,1-1.93,22.69l-33.14,27.18a16.11,16.11,0,0,1-22.68-2l-2.8-3.36a16.28,16.28,0,0,1,1.94-22.8"/><path class="cls-1" d="M193.47,226.33a15.31,15.31,0,0,1-1.86,21.54l-12.8,10.05A15.23,15.23,0,0,1,157.27,256l-2.67-3.1a15.45,15.45,0,0,1,2-21.71"/></g></g></g></svg>