<svg xmlns="http://www.w3.org/2000/svg" viewBox="0 0 263 263"><defs><style>.cls-1{fill:none;stroke:#fff;stroke-linecap:round;stroke-linejoin:round;stroke-width:3px;}</style></defs><g id="Layer_2" data-name="Layer 2"><g id="레이어_1" data-name="레이어 1"><g id="ethics_honesty" data-name="ethics honesty"><line class="cls-1" x1="131.5" y1="18.27" x2="131.5" y2="1.5"/><path class="cls-1" d="M56,56H1.5V47.63A16.77,16.77,0,0,1,18.27,30.85h67.1a54.13,54.13,0,0,0,26.46-7,40.71,40.71,0,0,1,19.67-5.54"/><path class="cls-1" d="M110.53,156.66a54.52,54.52,0,1,1-109,0L56,56Z"/><line class="cls-1" x1="1.5" y1="156.66" x2="81.18" y2="156.66"/><path class="cls-1" d="M261.5,156.66a54.52,54.52,0,1,1-109,0L207,56Z"/><line class="cls-1" x1="152.47" y1="156.66" x2="232.15" y2="156.66"/><path class="cls-1" d="M207,261.5v-4.19a25.15,25.15,0,0,0-25.16-25.16H81.18A25.15,25.15,0,0,0,56,257.31v4.19Z"/><path class="cls-1" d="M232.15,56H261.5V47.63a16.77,16.77,0,0,0-16.77-16.78h-67.1a54.13,54.13,0,0,1-26.46-7,40.67,40.67,0,0,0-19.67-5.54"/><path class="cls-1" d="M207,56H156.66c-8.39,0-16.77-12.58-25.16-4.2-8.39-8.38-16.77,4.2-25.16,4.2H81.18"/><line class="cls-1" x1="131.5" y1="76.98" x2="131.5" y2="232.15"/></g></g></g></svg>