<svg xmlns="http://www.w3.org/2000/svg" viewBox="0 0 14 14">
  <defs>
    <style>
      .languageCls-1 {
        fill: none;
        stroke: #fff;
        stroke-miterlimit: 10;
      }
      .languageCls-2 {
        fill: #fff;
      }
    </style>
  </defs>
  <g>
    <circle class="languageCls-1" cx="7" cy="7" r="6.5" />
    <path class="languageCls-2" d="M6.6.77s.36.66-.46,2A3.09,3.09,0,0,1,4.78,3.86C4.52,4,3,4.15,3.45,4.62s1.3.53,1.85,1.07S5.61,7,6.15,7s.92-1,1.44-.52S7.31,8.31,6.65,9,6.58,10,6.28,10.32s-.72.56-.72,1.13-1.31,1.13-1.48.17S4.36,9.25,4,8.83a2.68,2.68,0,0,1-.88-2.4C3.21,6,1.38,6.16,1,5.69S1.26,4,1.26,4,3,.56,6.6.77Z" />
    <path class="languageCls-2" d="M11.64,11.55c-.67.71.12-1.29-.26-1.67s.73-1.19,0-1.92-1.68,0-1.89-1.27,1-1.88,1.52-1.57a6.82,6.82,0,0,0,2.29.27A6.38,6.38,0,0,1,11.64,11.55Z" />
    <path class="languageCls-2" d="M12.17,3.06a2.89,2.89,0,0,1-1.46-.18c-.53-.31-.6,0-1.07.27S8.79,3.64,8.48,3,9.64,1.06,9.64,1.06A6.19,6.19,0,0,1,12.17,3.06Z" />
  </g>
</svg>